<svg width="32" height="32" viewBox="0 0 32 32" xmlns="http://www.w3.org/2000/svg"><path d="M3.925 14.388c7.516-3.275 12.528-5.434 15.036-6.477 7.16-2.978 8.648-3.495 9.618-3.513.213-.004.69.049.999.3.261.212.333.498.367.698.034.201.077.658.043 1.015-.388 4.077-2.067 13.97-2.921 18.536-.361 1.932-1.073 2.58-1.762 2.643-1.497.138-2.634-.989-4.084-1.94-2.269-1.487-3.551-2.413-5.754-3.865-2.546-1.677-.895-2.599.555-4.106.38-.394 6.977-6.395 7.104-6.939.016-.068.031-.322-.12-.456s-.373-.088-.534-.052c-.228.052-3.853 2.448-10.875 7.188-1.029.706-1.961 1.051-2.796 1.033-.921-.02-2.691-.521-4.008-.948-1.615-.525-2.898-.802-2.786-1.694.058-.464.698-.939 1.918-1.424z"/></svg>
