<svg width="32" height="32" viewBox="0 0 32 32" xmlns="http://www.w3.org/2000/svg"><path fill-rule="evenodd" clip-rule="evenodd" d="M25.8 6.025c-2.625-2.625-6.125-4.025-9.8-4.025-7.7 0-14 6.3-14 14 0 2.45.7 4.9 1.925 7l-1.925 7 7.35-1.925c2.1 1.05 4.375 1.75 6.65 1.75 7.7 0 14-6.3 14-14 0-3.675-1.575-7.175-4.2-9.8zm-9.8 21.525c-2.1 0-4.2-.525-5.95-1.575l-.35-.175-4.375 1.225 1.225-4.2-.35-.525c-1.225-1.925-1.75-4.025-1.75-6.125 0-6.3 5.25-11.55 11.55-11.55 3.15 0 5.95 1.225 8.225 3.325 2.275 2.275 3.325 5.075 3.325 8.225 0 6.125-5.075 11.375-11.55 11.375zm6.3-8.75c-.35-.175-2.1-1.05-2.45-1.05-.35-.175-.525-.175-.7.175l-1.05 1.4c-.175.175-.35.175-.7.175-.35-.175-1.4-.525-2.8-1.75-1.05-.875-1.75-2.1-1.925-2.45-.175-.35 0-.525.175-.7l.525-.525.35-.525c.175-.175 0-.35 0-.525 0-.175-.7-1.925-1.05-2.625-.175-.525-.525-.525-.7-.525h-.7c-.175 0-.525 0-.875.35s-1.225 1.225-1.225 2.975 1.225 3.325 1.4 3.675c.175.175 2.45 3.85 5.95 5.25 2.975 1.225 3.5.875 4.2.875.7 0 2.1-.875 2.275-1.575.35-.875.35-1.575.175-1.575-.175-.875-.525-.875-.875-1.05z"/></svg>
