<svg width="60" height="60" viewBox="0 0 60 60" xmlns="http://www.w3.org/2000/svg"><path d="M8.002 8.002c3.231-3.231 8.1-4.502 14.498-4.502h5c.828 0 1.5.672 1.5 1.5s-.672 1.5-1.5 1.5h-5c-6.102 0-9.983 1.23-12.377 3.623-2.394 2.393-3.623 6.275-3.623 12.377v15c0 6.102 1.23 9.983 3.623 12.377 2.393 2.394 6.275 3.623 12.377 3.623h15c6.102 0 9.983-1.23 12.377-3.623 2.394-2.394 3.623-6.275 3.623-12.377v-5c0-.828.672-1.5 1.5-1.5s1.5.672 1.5 1.5v5c0 6.398-1.27 11.267-4.502 14.498-3.231 3.231-8.1 4.502-14.498 4.502h-15c-6.398 0-11.267-1.27-14.498-4.502-3.231-3.231-4.502-8.1-4.502-14.498v-15c0-6.398 1.27-11.267 4.502-14.498zM45.528 2.907c2.634-.259 5.289.889 7.982 3.582 2.693 2.693 3.841 5.348 3.582 7.982-.251 2.555-1.796 4.703-3.582 6.489l-19.7 19.7-.017.017c-.528.511-1.229.967-1.916 1.312-.684.344-1.476.639-2.215.745l-7.525 1.075-.008.001c-1.757.242-3.409-.24-4.56-1.386-1.153-1.148-1.638-2.8-1.379-4.565v-.003l1.073-7.514v-.003c.105-.75.399-1.547.745-2.236.347-.689.807-1.393 1.33-1.915l19.7-19.7c1.786-1.786 3.934-3.331 6.489-3.582zm.293 2.986c-1.519.149-3.047 1.104-4.661 2.718l-19.7 19.7c-.228.228-.517.637-.77 1.141-.254.505-.409.981-.455 1.306l-.001.005-1.075 7.525-.001.006c-.141.959.137 1.618.528 2.007.393.391 1.064.672 2.03.54h.003l7.517-1.074c.311-.044.782-.199 1.292-.455.501-.252.922-.542 1.17-.78l19.69-19.69c1.614-1.614 2.569-3.141 2.718-4.661.141-1.441-.411-3.261-2.718-5.568-2.307-2.307-4.127-2.859-5.568-2.718zM36.87 8.931c.798-.224 1.626.242 1.849 1.039 1.533 5.469 5.814 9.753 11.315 11.312.797.226 1.26 1.055 1.034 1.852-.226.797-1.055 1.26-1.852 1.034-6.499-1.841-11.569-6.908-13.385-13.388-.224-.798.242-1.626 1.039-1.849z"/></svg>
