<svg width="60" height="60" viewBox="0 0 60 60" xmlns="http://www.w3.org/2000/svg"><path d="M29.425 22.199c0-.828.672-1.5 1.5-1.5h13.125c.828 0 1.5.672 1.5 1.5s-.672 1.5-1.5 1.5h-13.125c-.828 0-1.5-.672-1.5-1.5zM24.511 17.389c.586.586.586 1.535 0 2.121l-5.625 5.625c-.586.586-1.536.586-2.121 0l-1.875-1.875c-.586-.586-.586-1.536 0-2.121.586-.586 1.536-.586 2.121 0l.814.814 4.564-4.564c.586-.586 1.536-.586 2.121 0zM29.425 39.699c0-.828.672-1.5 1.5-1.5h13.125c.828 0 1.5.672 1.5 1.5s-.672 1.5-1.5 1.5h-13.125c-.828 0-1.5-.672-1.5-1.5zM24.511 34.889c.586.586.586 1.536 0 2.121l-5.625 5.625c-.586.586-1.536.586-2.121 0l-1.875-1.875c-.586-.586-.586-1.536 0-2.121.586-.586 1.536-.586 2.121 0l.814.814 4.564-4.564c.586-.586 1.536-.586 2.121 0zM8.002 8.002c3.231-3.231 8.1-4.502 14.498-4.502h15c6.398 0 11.267 1.27 14.498 4.502 3.231 3.231 4.502 8.1 4.502 14.498v15c0 6.398-1.27 11.267-4.502 14.498-3.231 3.231-8.1 4.502-14.498 4.502h-15c-6.398 0-11.267-1.27-14.498-4.502-3.231-3.231-4.502-8.1-4.502-14.498v-15c0-6.398 1.27-11.267 4.502-14.498zm2.121 2.121c-2.394 2.393-3.623 6.275-3.623 12.377v15c0 6.102 1.23 9.983 3.623 12.377 2.393 2.394 6.275 3.623 12.377 3.623h15c6.102 0 9.983-1.23 12.377-3.623 2.394-2.394 3.623-6.275 3.623-12.377v-15c0-6.102-1.23-9.983-3.623-12.377-2.394-2.394-6.275-3.623-12.377-3.623h-15c-6.102 0-9.983 1.23-12.377 3.623z"/></svg>
