<svg width="170" height="61" viewBox="0 0 170 61" xmlns="http://www.w3.org/2000/svg" fill="none"><g clip-path="url(#a)"><mask id="b" style="mask-type:luminance" maskUnits="userSpaceOnUse" x="-29" y="-26" width="228" height="113"><path d="M198.56-25.195h-227.12v111.391h227.12v-111.391z" fill="#fff"/></mask><path fill-rule="evenodd" clip-rule="evenodd" d="M102.63 44.945h-17.498v-35.71h15.170000000000002c2.886 0 2.858 2.246 3.18 4.706.52 3.899.965 6.052 2.914 9.283.256.418.426.882.634 1.327.568 1.244.72 2.2.852 3.546l.038.473c.199 2.451.218 4.994.237 7.454.009.993.009 1.996.009 2.989.01 3.268-2.47 5.932-5.536 5.932z" fill="#49AD33" mask="url(#b)"/><mask id="c" style="mask-type:luminance" maskUnits="userSpaceOnUse" x="-29" y="-26" width="228" height="113"><path d="M198.56-25.195h-227.12v111.391h227.12v-111.391z" fill="#fff"/></mask><path fill-rule="evenodd" clip-rule="evenodd" d="M71.856 44.945h17.498v-35.71h-15.170000000000002c-2.886 0-2.858 2.246-3.18 4.706-.52 3.899-.965 6.052-2.915 9.283-.255.418-.426.882-.634 1.327-.568 1.244-.719 2.2-.852 3.546l-.038.473c-.199 2.451-.218 4.994-.237 7.454-.01.993-.01 1.996-.01 2.989-.019 3.268 2.47 5.932 5.536 5.932z" fill="#49AD33" mask="url(#c)"/><mask id="d" style="mask-type:luminance" maskUnits="userSpaceOnUse" x="-29" y="-26" width="228" height="113"><path d="M198.56-25.195h-227.12v111.391h227.12v-111.391z" fill="#fff"/></mask><path d="M89.467 13.207h10.855v1.513c-.455.288-.985.538-1.581.733-.596.195-1.136.334-1.618.418l-8.252 9.57c.625.845 1.353 1.81 2.186 2.878.833 1.077 1.732 2.181 2.669 3.332.946 1.151 1.912 2.321 2.915 3.49 1.003 1.179 1.968 2.293 2.915 3.36l1.94 1.151v1.346h-7.031l-1.618-1.114c-.644-.798-1.325-1.671-2.044-2.645-.719-.965-1.419-1.977-2.129-3.017-.7-1.049-1.391-2.098-2.063-3.156-.672-1.058-1.306-2.089-1.902-3.1h-1.741v10.369c.596.102 1.136.269 1.618.473.483.213.909.436 1.259.678v1.513h-12.264v-1.495c.539-.269 1.098-.492 1.656-.696.568-.195 1.117-.353 1.656-.455v-22.483c-.625-.083-1.221-.223-1.798-.436-.577-.214-1.088-.455-1.514-.715v-1.513h12.264v1.513c-.35.213-.776.427-1.278.631-.502.213-1.031.381-1.599.52v10.09l2.385-.557 7.069-9.533c-.539-.102-1.069-.269-1.599-.492-.53-.223-.975-.446-1.353-.659v-1.513z" fill="#fff" mask="url(#d)"/><mask id="e" style="mask-type:luminance" maskUnits="userSpaceOnUse" x="-29" y="-26" width="228" height="113"><path d="M198.56-25.195h-227.12v111.391h227.12v-111.391z" fill="#fff"/></mask><path d="M38.856 26.675c-.889 0-1.59.084-2.101.241v11.473c.218.056.568.093 1.05.121.483.028.852.037 1.098.037 1.543 0 2.763-.492 3.681-1.467.918-.984 1.372-2.553 1.372-4.725 0-3.787-1.694-5.681-5.101-5.681zm-11.498 14.332v-1.504c.483-.269 1.022-.492 1.599-.696.577-.195 1.155-.353 1.722-.455v-22.483c-.539-.102-1.098-.241-1.656-.418-.568-.176-1.117-.418-1.656-.733v-1.513h12.955v1.513c-.511.269-1.069.492-1.684.696-.606.195-1.24.353-1.883.455v8.503c.483-.084 1.069-.149 1.741-.195.672-.056 1.287-.084 1.826-.084 1.401 0 2.735.13 3.984.399 1.259.269 2.347.715 3.284 1.346.927.631 1.675 1.485 2.224 2.543.549 1.058.833 2.386.833 3.973 0 1.485-.293 2.776-.889 3.871-.596 1.095-1.401 2.014-2.432 2.738-1.022.724-2.224 1.272-3.605 1.624-1.372.362-2.849.538-4.41.538l-.833-.019-1.457-.037-1.684-.037c-.568-.009-1.05-.019-1.457-.019h-6.52v-.009zm36.036 0h-12.264v-1.504c.435-.241.899-.455 1.401-.659.502-.195 1.022-.362 1.562-.492v-22.483c-.511-.102-1.05-.251-1.599-.436-.549-.186-1.069-.427-1.562-.715v-1.513h12.473v1.513c-.918.585-1.997.965-3.236 1.151v22.483c.672.102 1.278.269 1.826.492.539.223 1.013.446 1.419.659v1.504h-.019zm-53.089-15.409c.464 0 .918-.019 1.372-.056.454-.037.89-.084 1.296-.139 1.05-.427 1.902-1.077 2.555-1.968.643-.891.975-1.903.975-3.035 0-1.671-.445-2.896-1.334-3.676-.89-.78-2.035-1.17-3.445-1.17-.596 0-1.107.009-1.543.037-.435.028-.823.065-1.173.121v9.886h1.296zm1.779 13.07c1.703 0 3.038-.492 4.013-1.485.975-.993 1.457-2.311 1.457-3.954 0-1.002-.161-1.838-.483-2.479-.322-.65-.767-1.17-1.334-1.55-.568-.381-1.24-.65-2.025-.798-.785-.149-1.637-.223-2.555-.223h-2.148v10.211c.379.084.776.149 1.192.195.426.056 1.05.084 1.883.084zm-12.227 2.339v-1.504c.511-.288 1.06-.538 1.637-.752.577-.213 1.136-.343 1.684-.399v-22.483c-.539-.102-1.107-.26-1.703-.455-.596-.195-1.136-.427-1.618-.696v-1.513h6.52c1.022 0 1.997-.037 2.915-.121.918-.083 1.968-.121 3.161-.121 1.296 0 2.555.093 3.766.278 1.211.186 2.29.52 3.236.993.946.473 1.703 1.142 2.271 2.005.568.863.852 1.968.852 3.314 0 .845-.151 1.634-.464 2.367-.312.724-.738 1.374-1.297 1.931-.549.557-1.202 1.021-1.94 1.392s-1.543.631-2.413.798v.158c.861.102 1.732.306 2.612.594.88.288 1.666.715 2.366 1.272.7.557 1.277 1.253 1.722 2.089.445.836.672 1.819.672 2.961 0 1.429-.322 2.664-.975 3.694-.643 1.03-1.514 1.884-2.612 2.543-1.098.659-2.337 1.142-3.747 1.448-1.401.306-2.858.455-4.372.455-.568 0-1.183-.009-1.864-.037l-2.025-.084-1.968-.084c-.634-.028-1.164-.037-1.599-.037h-4.817v-.009z" fill="#050008" mask="url(#e)"/><mask id="f" style="mask-type:luminance" maskUnits="userSpaceOnUse" x="-29" y="-26" width="228" height="113"><path d="M198.56-25.195h-227.12v111.391h227.12v-111.391z" fill="#fff"/></mask><path d="M153.25 41.008h-12.151v-1.504c.407-.213.88-.427 1.42-.659.539-.223 1.173-.39 1.902-.492v-22.483c-.54-.102-1.098-.251-1.685-.436-.577-.186-1.126-.427-1.637-.715v-1.513h29.071v1.513c-.511.316-1.05.566-1.618.733-.568.176-1.135.316-1.703.418v22.483c1.003.102 2.11.492 3.321 1.151v1.513h-12.15v-1.513c.274-.213.624-.418 1.05-.613.435-.195 1.003-.381 1.703-.538v-22.557h-10.286v22.557c.539.13 1.022.288 1.457.473.435.186.861.409 1.297.678v1.504h.009zm-22.485-25.137c-.643-.13-1.211-.297-1.703-.492-.483-.195-.956-.418-1.42-.659v-1.513h9.795v1.513c-.294.213-.691.418-1.193.613-.501.195-1.059.381-1.684.538l-7.732 17.154c-1.296 2.915-2.649 5.078-4.05 6.498-1.4 1.42-2.905 1.977-4.495 1.689-.218-.213-.435-.538-.672-.975-.227-.436-.445-.9-.643-1.392-.199-.492-.369-.965-.502-1.429-.132-.464-.218-.854-.246-1.17l1.136-1.587 4.816 1.467c.218-.241.417-.529.606-.873.189-.343.369-.724.53-1.151l-10.769-18.231c-.511-.13-1.003-.297-1.477-.492-.473-.195-.908-.418-1.315-.659v-1.513h12.634v1.513c-.814.473-1.836.863-3.076 1.151l5.706 10.759.852 2.543h.085l.814-2.618 4.003-10.684z" fill="#050008" mask="url(#f)"/><mask id="g" style="mask-type:luminance" maskUnits="userSpaceOnUse" x="-29" y="-26" width="228" height="113"><path d="M198.56-25.195h-227.12v111.391h227.12v-111.391z" fill="#fff"/></mask><path d="M142.036 58.367h-2.158v-2.776h2.489v2.776h-.331zm20.904-1.977v-5.105l-.085-.028-.275-.093-.264-.056-.313-.019c-.293 0-.549.056-.776.158-.227.102-.426.269-.596.483-.17.223-.303.501-.397.845-.095.353-.142.789-.142 1.281 0 .455.037.863.123 1.216.085.343.198.641.359.882.152.232.331.399.54.511.208.111.454.167.738.167.236 0 .454-.028.643-.093l.332-.111.113-.037zm4.94-2.571c0-.455-.038-.854-.123-1.197-.076-.334-.189-.631-.341-.873-.142-.223-.312-.39-.52-.501-.208-.111-.454-.167-.738-.167l-.351.009-.274.047-.303.093-.199.065v5.105l.123.056.256.102.208.046.341.019c.303 0 .568-.056.795-.167.227-.111.416-.279.587-.501.17-.232.302-.529.388-.872.113-.353.151-.78.151-1.263zm2.148-.158c0 .381-.028.743-.076 1.095-.047.343-.123.668-.227.975-.104.297-.217.576-.359.826-.142.26-.294.483-.473.687-.171.204-.36.381-.559.529-.199.158-.416.288-.643.399-.227.111-.464.186-.701.241-.246.056-.482.084-.738.084-.189 0-.369-.019-.539-.047-.171-.037-.331-.084-.483-.148l-.189-.093v3.23h-2.101v-3.23l-.293.13c-.123.056-.284.093-.473.121-.171.028-.379.037-.597.037-.539 0-1.031-.102-1.476-.316-.445-.213-.833-.52-1.164-.938-.331-.408-.577-.891-.748-1.457-.16-.548-.236-1.179-.236-1.875 0-.362.028-.706.076-1.04.056-.334.132-.65.236-.938.104-.288.227-.557.369-.808s.294-.473.473-.678c.171-.204.36-.381.559-.529.199-.158.416-.288.653-.39.227-.102.463-.186.691-.241.236-.056.463-.084.7-.084.17 0 .331.009.492.037.161.028.312.065.454.121l.294.121v-3.36h2.1v3.379l.388-.139c.171-.056.351-.093.521-.121.18-.028.359-.046.53-.046.549 0 1.041.102 1.486.316.444.213.823.52 1.145.928.312.408.539.882.7 1.42.132.548.208 1.142.208 1.801zm-17.11.158c0-.483-.037-.891-.123-1.244-.075-.334-.189-.603-.34-.817-.142-.195-.322-.353-.53-.446-.227-.102-.492-.158-.805-.158-.179 0-.369.019-.548.056-.19.037-.37.093-.559.176-.189.084-.378.176-.577.288-.142.084-.275.167-.416.269v4.326l.34.13.436.13c.132.028.274.056.425.065.152.019.313.019.492.019.351 0 .663-.056.928-.167.265-.111.492-.279.672-.501.189-.223.34-.511.435-.854.114-.362.17-.78.17-1.272zm2.149-.028c0 .353-.029.687-.076 1.021-.057.325-.133.641-.237.938-.104.297-.236.575-.378.826-.152.26-.322.492-.521.696-.189.204-.388.38-.596.538-.218.158-.445.288-.7.399-.246.111-.502.195-.767.251-.265.056-.53.084-.804.084-.237 0-.454-.009-.672-.037-.218-.028-.416-.065-.615-.111-.189-.047-.388-.111-.577-.195l-.086-.037v3.277h-2.1v-12.04h2.1v.548l.095-.056c.227-.139.464-.26.719-.371.256-.111.53-.204.805-.26.274-.056.558-.084.851-.084.559 0 1.07.102 1.515.316.444.213.832.529 1.145.956.312.408.539.901.7 1.467.123.548.199 1.179.199 1.875zm-20.091 4.576h-1.77v-5.523l-3.899 5.523h-1.817v-8.967h2.101v5.43l3.861-5.43h1.865v8.967h-.341zm-10.542-7.083h-2.726v7.092h-2.101v-7.092h-3.066v-1.875h8.224v1.875h-.331zm-9.965 6.535c-.293.139-.577.251-.833.343-.265.093-.501.176-.729.223-.217.056-.444.093-.662.121-.227.028-.445.037-.662.037-.322 0-.634-.028-.937-.074-.303-.046-.587-.121-.871-.213-.284-.093-.539-.214-.785-.362s-.464-.316-.672-.511c-.208-.195-.388-.418-.54-.668-.151-.241-.293-.511-.397-.808-.104-.288-.189-.603-.246-.947-.057-.343-.085-.696-.085-1.077 0-.696.104-1.327.302-1.894.199-.576.511-1.077.909-1.504.407-.436.889-.761 1.448-.975.549-.214 1.173-.316 1.864-.316.256 0 .521.019.776.056.256.037.502.093.757.158.237.065.473.139.7.232.228.084.455.186.653.288l.19.093v2.079h-.53l-.095-.065c-.227-.167-.445-.306-.662-.427-.218-.121-.426-.223-.644-.297-.208-.074-.416-.13-.624-.176-.199-.037-.398-.056-.597-.056-.378 0-.709.056-.993.176-.275.121-.511.297-.71.529-.199.241-.36.538-.454.873-.104.353-.161.761-.161 1.225 0 .464.057.863.161 1.216.104.343.255.631.454.873.199.232.435.399.71.52.284.121.615.176.993.176.133 0 .275-.009.407-.028l.398-.074.388-.121.35-.149.274-.148.284-.167c.199-.121.331-.214.398-.269l.094-.074h.54v2.07l-.161.111zm-12.416-3.936c0-.511-.047-.947-.151-1.318-.095-.353-.237-.64-.417-.863-.18-.223-.397-.381-.643-.492-.256-.111-.549-.167-.88-.167-.341 0-.634.056-.899.167-.246.111-.464.269-.644.492-.18.223-.322.511-.416.863-.095.371-.151.808-.151 1.318 0 .492.047.919.151 1.281.095.353.237.641.416.873.18.223.397.399.644.511.255.111.549.167.889.167.331 0 .625-.056.871-.167.246-.111.463-.279.643-.501.19-.232.331-.52.426-.873.114-.362.161-.789.161-1.29zm2.148 0c0 .715-.094 1.346-.284 1.922-.189.575-.482 1.077-.861 1.504-.388.427-.842.752-1.363.965-.52.213-1.097.325-1.731.325-1.297 0-2.337-.427-3.104-1.29-.379-.427-.672-.928-.861-1.504-.189-.566-.284-1.207-.284-1.912 0-.706.095-1.346.284-1.912.189-.576.473-1.086.861-1.504.388-.427.842-.752 1.363-.965.52-.214 1.098-.325 1.741-.325.634 0 1.211.111 1.731.325.521.213.975.538 1.363.965.388.427.672.928.861 1.504.19.557.284 1.197.284 1.903zm-12.274 4.483h-1.77v-5.449l-1.561 3.165h-1.476l-1.543-3.156v5.449h-2.006v-8.967h2.271l2.082 4.224 2.016-4.224h2.319v8.967h-.331v-.009zm-12.728 0h-1.77v-5.523l-3.899 5.523h-1.817v-8.967h2.101v5.43l3.861-5.43h1.864v8.967h-.341zm-10.817 0h-1.902l-2.706-3.797h-.17v3.797h-2.101v-3.797h-.123l-2.839 3.797h-2.479l3.464-4.595-.095-.074c-.123-.102-.246-.223-.35-.362-.114-.139-.218-.306-.312-.511-.095-.186-.18-.408-.265-.668-.057-.186-.123-.343-.199-.473-.066-.111-.123-.195-.189-.241-.057-.046-.132-.084-.236-.111-.123-.028-.274-.046-.464-.046h-.738v-1.875h.861c.341 0 .653.037.927.102.293.074.539.176.767.325.227.148.426.343.606.594.17.241.312.529.435.863l.076.204.095.223v.009l.095.223.085.186c.076.158.151.297.246.408.085.102.17.176.265.241.104.065.218.111.341.149l.028.009v-3.546h2.101v3.537l.028-.009c.123-.037.237-.084.341-.148.104-.065.189-.139.275-.241.085-.111.17-.241.237-.399l.085-.195.095-.232.085-.213.066-.195v-.009c.123-.334.265-.613.426-.854.17-.251.369-.446.587-.603.218-.148.473-.26.767-.334.284-.074.596-.102.937-.102h.852v1.875h-.738c-.341 0-.568.056-.691.158-.066.065-.133.149-.189.26-.066.121-.133.279-.189.455-.076.232-.161.436-.246.631-.095.195-.199.362-.312.501-.114.139-.227.26-.341.371l-.076.065 3.435 4.651h-.653zm-15.359 0h-1.77v-5.523l-3.899 5.523h-1.817v-8.967h2.101v5.43l3.861-5.43h1.864v8.967h-.341zm-13.107-2.85l-.028-.306-.076-.214-.133-.139c-.076-.065-.18-.121-.312-.186l-.237-.084-.265-.046-.379-.019-.52-.009h-1.486v2.07h1.013l.738-.009.53-.037.369-.074c.114-.037.208-.074.303-.13l.227-.158.142-.176.085-.204.028-.278zm-.454-3.657l-.019-.176-.057-.149-.085-.102-.132-.083-.274-.093-.312-.046-.435-.009h-1.675v1.597h1.438l.473-.009.303-.028.199-.056.208-.102.18-.139.095-.139.057-.186c.038-.084.038-.176.038-.279zm2.602 3.657c0 .223-.028.436-.066.64-.047.204-.123.399-.208.585-.095.176-.208.343-.341.492-.133.149-.274.288-.445.399-.18.13-.36.241-.558.334-.189.093-.398.167-.615.223-.208.056-.454.102-.719.13-.265.028-.558.046-.88.046h-3.852v-8.967h3.625c.303 0 .587.009.852.019.246.009.464.028.634.046.18.019.35.056.52.111.17.056.341.121.502.195.189.093.35.204.483.334.142.13.255.269.35.436.095.158.161.334.199.511.047.176.066.371.066.575 0 .241-.038.464-.104.678-.076.213-.18.408-.322.594-.132.176-.293.325-.464.464l-.019.018.151.074c.237.13.445.297.634.492.189.204.341.436.435.705.095.26.142.548.142.863zm-13.996 1.003v-5.291h-1.931c-.038.52-.095 1.03-.18 1.513-.095.585-.236 1.133-.397 1.662-.161.529-.341 1.012-.53 1.439-.104.241-.208.464-.322.678h3.36zm2.792 3.843h-1.656v-2.014h-5.735v2.014h-1.987v-3.843h1.06c.246-.418.464-.863.653-1.337.218-.538.398-1.114.54-1.717.142-.613.255-1.235.322-1.857.076-.622.104-1.244.104-1.875v-.325h6v7.12h1.022v3.843h-.322v-.009zm-13.514-7.733c-.019-.195-.057-.38-.114-.538-.076-.241-.199-.436-.35-.603-.151-.158-.341-.279-.568-.362-.246-.084-.539-.13-.88-.13-.341 0-.653.046-.918.148-.256.093-.483.232-.681.418-.199.195-.35.408-.464.65-.066.139-.114.279-.151.436h4.126v-.019zm1.732 1.727h-5.896l.038.334c.038.204.085.381.151.548.066.167.151.316.246.455.095.13.199.251.312.353.114.102.237.195.369.269.142.084.284.149.445.195.161.056.331.093.511.121.18.028.369.037.577.037.265 0 .53-.028.804-.074.274-.056.539-.13.814-.232.284-.111.52-.214.71-.316.189-.102.331-.195.435-.288l.095-.084h.539v2.07l-.208.084c-.255.102-.502.195-.738.279-.256.083-.511.167-.767.232-.265.074-.539.121-.814.158-.284.037-.568.056-.852.056-.738 0-1.401-.102-1.987-.297-.596-.204-1.107-.511-1.533-.91-.435-.408-.757-.9-.975-1.476-.208-.566-.322-1.216-.322-1.94 0-1.439.407-2.59 1.221-3.453.407-.436.89-.761 1.429-.975.539-.213 1.136-.325 1.798-.325.615 0 1.155.093 1.637.269.492.186.909.455 1.249.817.341.362.596.798.767 1.309.17.501.246 1.068.246 1.699v1.086h-.303zm-11.81 4.01h-1.77v-3.722h-3.568v3.722h-2.101v-8.967h2.101v3.37h3.568v-3.37h2.101v8.967h-.331z" fill="#050008" mask="url(#g)"/><mask id="h" style="mask-type:luminance" maskUnits="userSpaceOnUse" x="-29" y="-26" width="228" height="113"><path d="M198.56-25.195h-227.12v111.391h227.12v-111.391z" fill="#fff"/></mask><path d="M87.177 8.184h-.038l-12.908-.028c-1.618 0-2.564.362-3.104 1.058-.606.78-.88 2.051-1.079 3.722-.123 1.012-.274 2.052-.473 3.082-.208 1.04-.464 2.07-.795 3.054-.189.566-.823.873-1.401.687-.577-.186-.89-.808-.7-1.374.293-.863.53-1.81.719-2.766.189-.965.331-1.959.445-2.924.237-2.033.606-3.63 1.524-4.799.984-1.244 2.46-1.903 4.855-1.894l10.315.028-.748-.854-.35.028c-1.562 0-2.83-1.244-2.83-2.776 0-1.606 1.382-2.887 3.038-2.776 1.363.093 2.47 1.16 2.612 2.488.047.501-.028.965-.218 1.383l.927 1.058c.18.204.492.204.672 0l.937-1.077c-.161-.343-.246-.733-.246-1.142 0-1.569 1.334-2.84 2.943-2.775 1.467.046 2.659 1.225 2.716 2.664.066 1.587-1.23 2.887-2.83 2.887l-.293-.019-.785.9 10.277-.028c2.395-.009 3.871.65 4.855 1.894.918 1.17 1.287 2.766 1.524 4.799.113.965.255 1.959.444 2.924.19.965.426 1.903.72 2.766.189.566-.123 1.179-.701 1.374-.577.186-1.202-.121-1.4-.687-.332-.984-.596-2.014-.795-3.054-.199-1.03-.36-2.079-.473-3.082-.199-1.671-.464-2.943-1.079-3.722-.549-.696-1.486-1.058-3.104-1.058l-12.908.028h-.161l-.104.009z" fill="#009945" mask="url(#h)"/></g><defs><clipPath id="a"><path fill="#fff" d="M0 0h170v61h-170z"/></clipPath></defs></svg>